<svg width="830" height="400" xmlns="http://www.w3.org/2000/svg" xmlns:xlink="http://www.w3.org/1999/xlink" shape-rendering="crispEdges"><g id="room" transform="translate(397 -58)"><defs><g id="floorTile"><path style="fill:#989865" d="M32 128 0 144l32 16 32-16-32-16z"/><path style="fill:none;stroke:#8e8e5e;opacity:.5" d="M32 128.5 1 144l31 15.5L63 144l-31-15.5z"/><path style="fill:#838357" d="M0 144v7l32 16v-7z"/><path style="fill:none;stroke:#7a7a51;opacity:.5" d="M.5 144.7v5.9l31 15.7v-5.9z"/><path style="fill:#6f6f49" d="M64 144v7l-32 16v-7z"/><path style="fill:none;stroke:#676744;opacity:.5" d="M63.5 144.7v5.9l-31 15.7v-5.9z"/></g><g id="wallLeft"><path style="fill:#70727a" d="M32 0 0 16l8 4L40 4l-8-4z"/><path style="fill:#bbbecd" d="M0 16v128l8 4V20z"/><path style="fill:#90929e" d="M40 4v128L8 148V20z"/></g><g id="wallRight"><path style="fill:#70727a" transform="translate(24)" d="m8 0 32 16-8 4L0 4l8-4z"/><path style="fill:#bbbecd" transform="translate(24)" d="M0 4v128l32 16V20z"/><path style="fill:#90929e" transform="translate(24)" d="M40 16v128l-8 4V20z"/></g><g id="wallDoorLeft"><path style="fill:#70727a" d="M32 0 0 16l8 4L40 4l-8-4z"/><path style="fill:#bbbecd" d="M0 16v32l8 4V20z"/><path style="fill:#90929e" d="M40 4v32L8 52V20z"/></g></defs><use xlink:href="#wallLeft" x="120" y="60"/><use xlink:href="#wallRight" x="136" y="60"/><use xlink:href="#floorTile" x="128" y="64"/><use xlink:href="#wallRight" x="168" y="76"/><use xlink:href="#floorTile" x="160" y="80"/><use xlink:href="#wallRight" x="200" y="92"/><use xlink:href="#floorTile" x="192" y="96"/><use xlink:href="#wallRight" x="232" y="108"/><use xlink:href="#floorTile" x="224" y="112"/><use xlink:href="#wallRight" x="264" y="124"/><use xlink:href="#floorTile" x="256" y="128"/><use xlink:href="#wallRight" x="296" y="140"/><use xlink:href="#floorTile" x="288" y="144"/><use xlink:href="#wallRight" x="328" y="156"/><use xlink:href="#floorTile" x="320" y="160"/><use xlink:href="#wallRight" x="360" y="172"/><use xlink:href="#floorTile" x="352" y="176"/><use xlink:href="#wallLeft" x="88" y="76"/><use xlink:href="#floorTile" x="96" y="80"/><use xlink:href="#floorTile" x="128" y="96"/><use xlink:href="#floorTile" x="160" y="112"/><use xlink:href="#floorTile" x="192" y="128"/><use xlink:href="#floorTile" x="224" y="144"/><use xlink:href="#floorTile" x="256" y="160"/><use xlink:href="#floorTile" x="288" y="176"/><use xlink:href="#floorTile" x="320" y="192"/><use xlink:href="#wallLeft" x="56" y="92"/><use xlink:href="#floorTile" x="64" y="96"/><use xlink:href="#floorTile" x="96" y="112"/><use xlink:href="#floorTile" x="128" y="128"/><use xlink:href="#floorTile" x="160" y="144"/><use xlink:href="#floorTile" x="192" y="160"/><use xlink:href="#floorTile" x="224" y="176"/><use xlink:href="#floorTile" x="256" y="192"/><use xlink:href="#floorTile" x="288" y="208"/><use xlink:href="#floorTile" y="96"/><use xlink:href="#wallDoorLeft" x="24" y="108"/><use xlink:href="#floorTile" x="32" y="112"/><use xlink:href="#floorTile" x="64" y="128"/><use xlink:href="#floorTile" x="96" y="144"/><use xlink:href="#floorTile" x="128" y="160"/><use xlink:href="#floorTile" x="160" y="176"/><use xlink:href="#floorTile" x="192" y="192"/><use xlink:href="#floorTile" x="224" y="208"/><use xlink:href="#floorTile" x="256" y="224"/><use xlink:href="#wallLeft" x="-8" y="124"/><use xlink:href="#floorTile" y="128"/><use xlink:href="#floorTile" x="32" y="144"/><use xlink:href="#floorTile" x="64" y="160"/><use xlink:href="#floorTile" x="96" y="176"/><use xlink:href="#floorTile" x="128" y="192"/><use xlink:href="#floorTile" x="160" y="208"/><use xlink:href="#floorTile" x="192" y="224"/><use xlink:href="#floorTile" x="224" y="240"/><use xlink:href="#wallLeft" x="-40" y="140"/><use xlink:href="#floorTile" x="-32" y="144"/><use xlink:href="#floorTile" y="160"/><use xlink:href="#floorTile" x="32" y="176"/><use xlink:href="#floorTile" x="64" y="192"/><use xlink:href="#floorTile" x="96" y="208"/><use xlink:href="#floorTile" x="128" y="224"/><use xlink:href="#floorTile" x="160" y="240"/><use xlink:href="#floorTile" x="192" y="256"/><use xlink:href="#wallLeft" x="-72" y="156"/><use xlink:href="#floorTile" x="-64" y="160"/><use xlink:href="#floorTile" x="-32" y="176"/><use xlink:href="#floorTile" y="192"/><use xlink:href="#floorTile" x="32" y="208"/><use xlink:href="#floorTile" x="64" y="224"/><use xlink:href="#floorTile" x="96" y="240"/><use xlink:href="#floorTile" x="128" y="256"/><use xlink:href="#floorTile" x="160" y="272"/><use xlink:href="#wallLeft" x="-232" y="108"/><use xlink:href="#wallRight" x="-216" y="108"/><use xlink:href="#floorTile" x="-224" y="112"/><use xlink:href="#wallRight" x="-184" y="124"/><use xlink:href="#floorTile" x="-192" y="128"/><use xlink:href="#wallRight" x="-152" y="140"/><use xlink:href="#floorTile" x="-160" y="144"/><use xlink:href="#wallRight" x="-120" y="156"/><use xlink:href="#floorTile" x="-128" y="160"/><use xlink:href="#floorTile" x="-96" y="176"/><use xlink:href="#floorTile" x="-64" y="192"/><use xlink:href="#floorTile" x="-32" y="208"/><use xlink:href="#floorTile" y="224"/><use xlink:href="#floorTile" x="32" y="240"/><use xlink:href="#floorTile" x="64" y="256"/><use xlink:href="#floorTile" x="96" y="272"/><use xlink:href="#floorTile" x="128" y="288"/><use xlink:href="#wallLeft" x="-264" y="124"/><use xlink:href="#floorTile" x="-256" y="128"/><use xlink:href="#floorTile" x="-224" y="144"/><use xlink:href="#floorTile" x="-192" y="160"/><use xlink:href="#floorTile" x="-160" y="176"/><use xlink:href="#floorTile" x="-128" y="192"/><use xlink:href="#floorTile" x="-96" y="208"/><use xlink:href="#floorTile" x="-64" y="224"/><use xlink:href="#floorTile" x="-32" y="240"/><use xlink:href="#floorTile" y="256"/><use xlink:href="#floorTile" x="32" y="272"/><use xlink:href="#floorTile" x="64" y="288"/><use xlink:href="#wallLeft" x="-296" y="140"/><use xlink:href="#floorTile" x="-288" y="144"/><use xlink:href="#floorTile" x="-256" y="160"/><use xlink:href="#floorTile" x="-224" y="176"/><use xlink:href="#floorTile" x="-192" y="192"/><use xlink:href="#floorTile" x="-160" y="208"/><use xlink:href="#floorTile" x="-128" y="224"/><use xlink:href="#floorTile" x="-96" y="240"/><use xlink:href="#floorTile" x="-64" y="256"/><use xlink:href="#floorTile" x="-32" y="272"/><use xlink:href="#floorTile" y="288"/><use xlink:href="#wallLeft" x="-328" y="156"/><use xlink:href="#floorTile" x="-320" y="160"/><use xlink:href="#floorTile" x="-288" y="176"/><use xlink:href="#floorTile" x="-256" y="192"/><use xlink:href="#floorTile" x="-224" y="208"/><use xlink:href="#floorTile" x="-192" y="224"/><use xlink:href="#floorTile" x="-160" y="240"/><use xlink:href="#floorTile" x="-128" y="256"/><use xlink:href="#floorTile" x="-96" y="272"/><use xlink:href="#floorTile" x="-64" y="288"/><use xlink:href="#wallLeft" x="-360" y="172"/><use xlink:href="#floorTile" x="-352" y="176"/><use xlink:href="#floorTile" x="-320" y="192"/><use xlink:href="#floorTile" x="-288" y="208"/><use xlink:href="#floorTile" x="-256" y="224"/><use xlink:href="#floorTile" x="-224" y="240"/><use xlink:href="#floorTile" x="-192" y="256"/><use xlink:href="#floorTile" x="-160" y="272"/><use xlink:href="#floorTile" x="-128" y="288"/><use xlink:href="#wallLeft" x="-392" y="188"/><use xlink:href="#floorTile" x="-384" y="192"/><use xlink:href="#floorTile" x="-352" y="208"/><use xlink:href="#floorTile" x="-320" y="224"/><use xlink:href="#floorTile" x="-288" y="240"/><use xlink:href="#floorTile" x="-256" y="256"/><use xlink:href="#floorTile" x="-224" y="272"/><use xlink:href="#floorTile" x="-192" y="288"/></g><g id="players"><defs><use id="playerE" xlink:href="#playerES"/><use id="playerS" xlink:href="#playerES" transform="matrix(-1 0 0 1 32 0)"/><use id="playerN" xlink:href="#playerNW"/><use id="playerW" xlink:href="#playerNW" transform="matrix(-1 0 0 1 32 0)"/><g id="playerES"><g id="player"><g id="isoIdle"><path stroke="#000" d="M6 0h12M4 1h2m12 0h2M3 2h1m16 0h1M2 3h1m18 0h1M1 4h1M0 5h1M0 6h1M0 7h1M0 8h1M0 9h1m-1 1h1m-1 1h1m-1 1h1m-1 1h1m20 0h1M0 14h1m20 0h1M0 15h1m20 0h1M0 16h1m20 0h1M0 17h1m20 0h1M0 18h1m20 0h1M0 19h1m20 0h1M0 20h1m20 0h1M0 21h1m20 0h1M0 22h1m20 0h1M0 23h1m20 0h1M0 24h1m20 0h1M0 25h1m20 0h1M0 26h1m19 0h1M0 27h1m19 0h1M0 28h1m19 0h1M0 29h1m19 0h1M0 30h1m18 0h1M0 31h1m18 0h1M0 32h1m18 0h1M1 33h1m17 0h1M1 34h1m17 0h1M2 35h1m16 0h1M3 36h1m8 0h1m6 0h1M3 37h1m8 0h1m6 0h1M3 38h1m8 0h1m6 0h1M3 39h1m8 0h1m6 0h1M3 40h1m8 0h1m6 0h1M3 41h1m8 0h1m6 0h1M3 42h1m8 0h1m6 0h1M3 43h1m8 0h1m6 0h1M3 44h1m8 0h1m6 0h1M3 45h1m8 0h1m7 0h1M3 46h1m8 0h1m8 0h1M3 47h1m8 0h1m9 0h1M3 48h1m8 0h1m10 0h1M3 49h1m8 0h1m10 0h1M3 50h1m9 0h1m7 0h2M3 51h1m10 0h1m4 0h2M3 52h1m11 0h4M3 53h2m10 0h1M5 54h2m6 0h2m-8 1h6" transform="translate(4 25)"/><path stroke="#fefefe" d="M6 1h12M4 2h16M3 3h18M2 4h20M1 5h21M1 6h21M1 7h21M1 8h21M2 9h20M2 10h20M2 11h20M2 12h19M2 13h19M2 14h19M2 15h18M2 16h18M2 17h18M2 18h18M2 19h18M2 20h18M2 21h18M2 22h18M2 23h18M2 24h13m1 0h4M2 25h12m2 0h4M2 26h12m1 0h5M2 27h17M2 28h17M2 29h17M2 30h17M2 31h16M2 32h16M3 33h11m1 0h3M4 34h9m2 0h3M5 35h7m2 0h4M5 36h6m3 0h4M5 37h6m3 0h4M5 38h6m3 0h4M5 39h6m3 0h4M5 40h6m3 0h4M5 41h6m3 0h4M5 42h6m3 0h4M5 43h6m3 0h4M5 44h6m3 0h5M5 45h6m3 0h6M5 46h6m3 0h7M5 47h6m3 0h8M5 48h6m3 0h5m2 0h2M5 49h7m3 0h2m2 0h2M5 50h8m3 0h3M5 51h9m4 0h1M6 52h5m2 0h2m-8 1h2m2 0h2m-5 1h3" transform="translate(4 25)"/><path stroke="#d7d7d7" d="M1 9h1m-1 1h1m-1 1h1m-1 1h1m19 0h1M1 13h1m-1 1h1m-1 1h1m18 0h1M1 16h1m18 0h1M1 17h1m18 0h1M1 18h1m18 0h1M1 19h1m18 0h1M1 20h1m18 0h1M1 21h1m18 0h1M1 22h1m18 0h1M1 23h1m18 0h1M1 24h1m13 0h1m4 0h1M1 25h1m12 0h2m4 0h1M1 26h1m12 0h1M1 27h1m17 0h1M1 28h1m17 0h1M1 29h1m17 0h1M1 30h1m-1 1h1m16 0h1M1 32h1m16 0h1M2 33h1m11 0h1m3 0h1M2 34h2m9 0h2m3 0h1M3 35h2m7 0h2m4 0h1M4 36h1m6 0h1m1 0h1m4 0h1M4 37h1m6 0h1m1 0h1m4 0h1M4 38h1m6 0h1m1 0h1m4 0h1M4 39h1m6 0h1m1 0h1m4 0h1M4 40h1m6 0h1m1 0h1m4 0h1M4 41h1m6 0h1m1 0h1m4 0h1M4 42h1m6 0h1m1 0h1m4 0h1M4 43h1m6 0h1m1 0h1m4 0h1M4 44h1m6 0h1m1 0h1M4 45h1m6 0h1m1 0h1M4 46h1m6 0h1m1 0h1M4 47h1m6 0h1m1 0h1M4 48h1m6 0h1m1 0h1m5 0h2M4 49h1m8 0h2m2 0h2m2 0h2M4 50h1m9 0h2m3 0h2M4 51h1m10 0h3M4 52h2m5 0h2m-8 1h2m2 0h2m2 0h2m-8 1h1m3 0h2" transform="translate(4 25)"/></g><g id="rightArm"><path stroke="#000" d="M1 0h1m0 1h1m0 1h1M3 3h1m0 1h1M4 5h1M4 6h1M4 7h1M4 8h1M1 9h1m2 0h1m-4 1h1m2 0h1m-4 1h1m2 0h1m-4 1h1m2 0h1m-4 1h1m2 0h1m-4 1h1m2 0h1m-4 1h1m2 0h1m-4 1h1m2 0h1m-4 1h1m2 0h1m-4 1h1m2 0h1m-4 1h1m2 0h1m-4 1h1m2 0h1m-4 1h1m2 0h1m-5 1h1m1 0h1m1 0h1m-5 1h1m1 0h1m1 0h1m-5 1h2m2 0h1m-4 1h1m1 0h1m-3 1h2" transform="translate(25 28)"/><path stroke="#fefefe" d="M0 1h2M0 2h3M0 3h3M0 4h4M0 5h4M0 6h4M0 7h4M0 8h4M2 9h2m-2 1h2m-2 1h2m-2 1h2m-2 1h2m-2 1h2m-2 1h2m-2 1h2m-2 1h2m-2 1h2m-2 1h2m-2 1h2m-2 1h2m-1 1h1m-1 1h1m-2 1h1" transform="translate(25 28)"/><path stroke="#999" d="M1 22h1" transform="translate(25 28)"/><path stroke="#d7d7d7" d="M1 23h1m1 1h1m-2 1h1" transform="translate(25 28)"/></g><path stroke="#000" d="M8 0h7M5 1h3m7 0h3M4 2h1m13 0h2M3 3h1m16 0h1M2 4h1m18 0h1M1 5h1m20 0h1M1 6h1m20 0h1M0 7h1m22 0h1M0 8h1m22 0h1M0 9h1m23 0h1M0 10h1m23 0h1M0 11h1m23 0h1M0 12h1m23 0h1M0 13h1m23 0h1M0 14h1m23 0h1M0 15h1m2 0h1m20 0h1M1 16h2m21 0h1M1 17h2m1 0h1m19 0h1M2 18h1m1 0h1m19 0h1M2 19h1m1 0h1m19 0h1M3 20h1m20 0h1M3 21h1m20 0h1M4 22h1m19 0h1M4 23h1m19 0h1M5 24h1m17 0h1M5 25h1m2 0h1m14 0h1M9 26h1m13 0h1m-14 1h1m11 0h1m-12 1h1m9 0h1m-10 1h2m5 0h2m-7 1h5" transform="translate(2 1)"/><path stroke="#fefefe" d="M8 1h7M5 2h13M4 3h16M3 4h18M2 5h20M2 6h20M1 7h22M1 8h22M1 9h23M1 10h23M1 11h23M1 12h23M1 13h23M1 14h23M2 15h1m2 0h19M3 16h21M3 17h1m1 0h19M3 18h1m1 0h19M3 19h1m1 0h19M5 20h19M5 21h19M5 22h19M6 23h1m1 0h16M6 24h1m2 0h14M6 25h2m1 0h14m-13 1h12m-11 1h10m-8 1h7" transform="translate(2 1)"/><path stroke="#d7d7d7" d="M1 15h1m2 0h1m-1 5h1m-1 1h1m0 2h1m1 0h1m0 1h1m13 2h1m-2 1h1m-10 1h1m7 0h1m-7 1h5" transform="translate(2 1)"/><path stroke="#999" d="M7 24h1" transform="translate(2 1)"/><g id="idleLeft"><path stroke="#000" d="M3 0h1M2 1h1M2 2h1M1 3h1M1 4h1M1 5h1M1 6h1M1 7h1m6 0h1M1 8h1m5 0h1M1 9h1m5 0h1m-7 1h1m5 0h1m-7 1h1m5 0h1m-7 1h1m5 0h1m-7 1h1m5 0h1m-7 1h1m5 0h1m-7 1h1m5 0h1m-7 1h1m5 0h1m-7 1h1m5 0h1m-7 1h1m5 0h1m-7 1h1m5 0h1m-7 1h1m5 0h1m-7 1h1m5 0h1m-7 1h1m5 0h1m-7 1h1m5 0h1m-8 1h1m6 0h1m-8 1h1m6 0h1m-8 1h1m6 0h1m-8 1h1m1 0h1m5 0h1m-9 1h1m1 0h1m1 0h1m3 0h1m-8 1h2m1 0h1m1 0h1m1 0h1m-6 1h2m1 0h2m-3 1h1m1 0h1m-2 1h1" transform="translate(0 31)"/><path stroke="#fefefe" d="M4 0h3M3 1h5M3 2h6M3 3h6M3 4h6M3 5h6M3 6h6M3 7h4M3 8h3M3 9h3m-3 1h3m-3 1h3m-3 1h3m-3 1h3m-3 1h3m-3 1h3m-3 1h3m-3 1h3m-3 1h3m-3 1h3m-3 1h3m-3 1h3m-3 1h3m-4 1h4m-4 1h4m-5 1h5m-5 1h6m-6 1h1m1 0h1m1 0h2m-4 1h1m1 0h1m1 0h1m-3 1h1m1 0h1" transform="translate(0 31)"/><path stroke="#cdcdcd" d="M2 3h1M2 4h1M2 5h1M2 6h1M2 7h1m4 0h1M2 8h1m3 0h1M2 9h1m3 0h1m-5 1h1m3 0h1m-5 1h1m3 0h1m-5 1h1m3 0h1m-5 1h1m3 0h1m-5 1h1m3 0h1m-5 1h1m3 0h1m-5 1h1m3 0h1m-5 1h1m3 0h1m-5 1h1m3 0h1m-5 1h1m3 0h1m-5 1h1m3 0h1m-5 1h1m3 0h1m-5 1h1m3 0h1m-1 1h1m-1 1h1m-1 1h1m-3 2h1m-4 1h1m4 0h1m-4 1h1m1 1h1m0 1h1" transform="translate(0 31)"/><path stroke="#ccc" d="M1 24h1" transform="translate(0 31)"/><path stroke="#999" d="M7 27h1" transform="translate(0 31)"/></g></g></g><g id="playerNW"><path stroke="#000" d="M5 0h6M3 1h2m6 0h2M1 2h2m10 0h3M0 3h1m15 0h2m0 1h1m0 1h1m-1 1h1m0 1h1m-1 1h1m0 1h1m-1 1h1m-1 1h1M0 12h1m20 0h1M0 13h1m20 0h1M0 14h1m20 0h1M0 15h1m20 0h1M0 16h1m20 0h1M0 17h1m20 0h1M1 18h1m19 0h1M1 19h1m19 0h1M1 20h1m19 0h1M1 21h1m19 0h1M1 22h1m19 0h1M1 23h1m19 0h1M1 24h1m19 0h1M1 25h1m19 0h1M1 26h1m19 0h1M1 27h1m19 0h1M1 28h1m19 0h1M1 29h1m19 0h1M1 30h1m19 0h1M2 31h1m17 0h1M2 32h1m3 0h1m13 0h1M2 33h1m4 0h2m10 0h1M2 34h1m6 0h2m8 0h1M2 35h1m6 0h1m9 0h1M2 36h1m6 0h1m9 0h1M2 37h1m6 0h1m9 0h1M2 38h1m6 0h1m9 0h1M2 39h1m6 0h1m9 0h1M2 40h1m6 0h1m9 0h1M2 41h1m6 0h1m9 0h1M2 42h1m6 0h1m9 0h1M2 43h1m6 0h1m9 0h1M2 44h1m6 0h1m9 0h1M2 45h1m6 0h1m9 0h1M2 46h1m6 0h1m9 0h1M2 47h1m6 0h1m10 0h2M3 48h1m5 0h1m12 0h2M4 49h2m3 0h1m14 0h1M6 50h4m14 0h1M9 51h1m12 0h2m-14 1h2m8 0h2m-10 1h2m4 0h2m-6 1h4" transform="translate(4 25)"/><path stroke="#d7d7d7" d="M5 1h6M3 2h2m7 0h1M1 3h2m11 0h2m0 1h2m-1 1h2m-1 1h1m-1 1h2m-2 1h2m-2 1h3m-3 1h3M0 11h1m17 0h3m-3 1h3m-3 1h3m-3 1h3m-3 1h3m-3 1h3M1 17h1m16 0h3m-3 1h3m-3 1h3m-3 1h3m-3 1h3m-3 1h3m-3 1h3M2 24h1m15 0h3M2 25h1m15 0h3M2 26h1m15 0h3M2 27h1m15 0h3M2 28h1m15 0h3M2 29h1m3 0h1m11 0h3M2 30h1m3 0h1m11 0h3M3 31h1m2 0h2m10 0h2M3 32h2m2 0h2m9 0h2M3 33h1m5 0h2m6 0h2M3 34h1m3 0h2m2 0h2m4 0h2M3 35h1m3 0h2m1 0h1m6 0h2M3 36h1m3 0h2m1 0h1m6 0h2M3 37h1m3 0h2m1 0h1m6 0h2M3 38h1m3 0h2m1 0h1m6 0h2M3 39h1m3 0h2m1 0h1m6 0h2M3 40h1m3 0h2m1 0h1m6 0h2M3 41h1m3 0h2m1 0h1m6 0h2M3 42h1m3 0h2m1 0h1m6 0h2M3 43h1m3 0h2m1 0h1m6 0h2M3 44h1m3 0h2m1 0h1m6 0h2M3 45h1m3 0h2m1 0h1m6 0h2M3 46h1m3 0h2m1 0h1m6 0h2M3 47h1m3 0h2m1 0h1m6 0h3M4 48h2m1 0h2m1 0h1m6 0h3M6 49h3m1 0h1m9 0h2m-12 1h1m11 0h2m-14 1h2m8 0h2m-10 1h2m4 0h2m-6 1h4" transform="translate(4 25)"/><path stroke="#fefefe" d="M5 2h7M3 3h11M0 4h16M0 5h17M0 6h18M0 7h18M0 8h18M0 9h18M0 10h18M1 11h17M1 12h17M1 13h17M1 14h17M1 15h17M1 16h17M2 17h16M2 18h16M2 19h16M2 20h16M2 21h16M2 22h16M2 23h16M3 24h15M3 25h15M3 26h15M3 27h15M3 28h15M3 29h3m1 0h11M3 30h3m1 0h11M4 31h2m2 0h10M5 32h1m3 0h9M4 33h3m4 0h6M4 34h3m6 0h4M4 35h3m4 0h6M4 36h3m4 0h6M4 37h3m4 0h6M4 38h3m4 0h6M4 39h3m4 0h6M4 40h3m4 0h6M4 41h3m4 0h6M4 42h3m4 0h6M4 43h3m4 0h6M4 44h3m4 0h6M4 45h3m4 0h6M4 46h3m4 0h6M4 47h3m4 0h6M6 48h1m4 0h6m3 0h2m-11 1h9m2 0h2m-13 1h11m-10 1h8m-6 1h4" transform="translate(4 25)"/><path stroke="#000" d="M3 0h2m0 1h1m0 1h1m0 1h1M7 4h1m0 1h1M8 6h1M0 7h1m7 0h1M1 8h1m7 0h1M2 9h1m6 0h1m-8 1h1m6 0h1m-7 1h1m5 0h1m-7 1h1m5 0h1m-7 1h1m5 0h1m-7 1h1m5 0h1m-7 1h1m5 0h1m-7 1h1m5 0h1m-7 1h1m5 0h1m-7 1h1m5 0h1m-7 1h1m5 0h1m-7 1h1m5 0h1m-7 1h1m5 0h1m-7 1h1m5 0h1m-7 1h1m5 0h1m-7 1h1m5 0h1m-7 1h1m5 0h1m-7 1h1m6 0h1m-9 1h1m7 0h1m-9 1h1m5 0h1m1 0h1m-9 1h1m3 0h1m1 0h1m1 0h1m-9 1h1m1 0h1m1 0h1m1 0h2m-7 1h2m1 0h3m-4 1h2" transform="translate(20 30)"/><path stroke="#fefefe" d="M2 1h1M1 2h4M0 3h6M0 4h7M0 5h7M0 6h8M2 7h6M3 8h5M4 9h4m-4 1h4m-3 1h3m-3 1h3m-3 1h3m-3 1h3m-3 1h3m-3 1h3m-3 1h3m-3 1h3m-3 1h3m-3 1h3m-3 1h3m-3 1h3m-3 1h3m-3 1h3m-3 1h4m-4 1h5m-7 1h7m-7 1h3m1 0h1m1 0h1m-7 1h1m1 0h1m1 0h1m-5 1h1m1 0h1" transform="translate(20 30)"/><path stroke="#d7d7d7" d="M3 1h2m0 1h1m0 1h1m0 2h1M1 7h1m0 1h1m5 0h1M3 9h1m4 0h1m-6 1h1m4 0h1m-5 1h1m3 0h1m-5 1h1m3 0h1m-5 1h1m3 0h1m-5 1h1m3 0h1m-5 1h1m3 0h1m-5 1h1m3 0h1m-5 1h1m3 0h1m-5 1h1m3 0h1m-5 1h1m3 0h1m-5 1h1m3 0h1m-5 1h1m3 0h1m-5 1h1m3 0h1m-5 1h1m3 0h1m-5 1h1m3 0h1m-5 1h1m-1 1h1m1 2h1m-3 1h1" transform="translate(20 30)"/><path stroke="#999" d="M9 29h1m-3 1h1m-3 1h1" transform="translate(20 30)"/><path stroke="#000" d="M13 0h5M9 1h4m5 0h4M7 2h2m13 0h1M5 3h2m16 0h1M4 4h1m19 0h1M3 5h1m21 0h1M2 6h1m22 0h1M1 7h1m24 0h1M1 8h1m24 0h1M1 9h1m24 0h1M0 10h1m25 0h1M0 11h1m25 0h1M0 12h1m25 0h1M0 13h1m25 0h1M0 14h1m25 0h1M0 15h1m25 0h1M0 16h1m19 0h1m5 0h1M1 17h1m17 0h1m1 0h1m4 0h1M1 18h1m17 0h1m1 0h1m3 0h1M2 19h1m16 0h1m5 0h1M3 20h1m15 0h1m5 0h1M4 21h1m15 0h1m4 0h1M4 22h1m20 0h1M5 23h1m18 0h1M6 24h1m17 0h1M6 25h1m15 0h2m-4 1h2m-2 1h1" transform="translate(2 1)"/><path stroke="#fefefe" d="M13 1h5M9 2h13M7 3h16M5 4h19M4 5h21M3 6h22M2 7h24M2 8h24M2 9h24M1 10h25M1 11h25M1 12h25M1 13h25M1 14h25M1 15h25M2 16h18m1 0h5M3 17h16m1 0h1m1 0h4M4 18h15m1 0h1m1 0h3M5 19h14m1 0h5M7 20h12m1 0h5M9 21h10m2 0h4m-5 1h5m-6 1h5m-6 1h6M8 25h2m5 0h7M7 26h13m-9 1h8" transform="translate(2 1)"/><path stroke="#d7d7d7" d="M1 16h1m0 1h1m-1 1h2m-1 1h2m-1 1h3m-2 1h4m10 0h1M5 22h15M6 23h13M7 24h11M7 25h1m2 0h5m4 2h1" transform="translate(2 1)"/><path stroke="#000" d="M2 0h1M1 1h1M1 2h1M0 3h1M0 4h1M0 5h1M0 6h1M0 7h1M0 8h1m2 0h1M0 9h1m2 0h1m-4 1h1m2 0h1m-4 1h1m2 0h1m-4 1h1m2 0h1m-4 1h1m2 0h1m-4 1h1m3 0h1m-5 1h1m3 0h1m-5 1h1m3 0h1m-5 1h1m3 0h1m-5 1h1m3 0h1m-5 1h1m3 0h1m-5 1h1m3 0h1m-5 1h1m2 0h2m-5 1h1m1 0h1m1 0h1m-5 1h1m2 0h2m-4 1h1m1 0h2m-3 1h2" transform="translate(1 29)"/><path stroke="#fefefe" d="M2 1h2M2 2h2M1 3h3M1 4h3M1 5h3M1 6h3M1 7h3M1 8h2M1 9h2m-2 1h2m-2 1h2m-2 1h2m-2 1h2m-2 1h3m-3 1h3m-3 1h3m-3 1h3m-3 1h3m-3 1h3m-3 1h3m-3 1h1m-1 1h1m0 1h1" transform="translate(1 29)"/><path stroke="#999" d="M2 21h1" transform="translate(1 29)"/><path stroke="#d7d7d7" d="M3 22h1m-3 1h1m0 1h1" transform="translate(1 29)"/></g></defs><use xlink:href="#playerE" x="476" y="108"/><text class="disable-pointer-events" x="494" y="96" text-anchor="middle" style="fill:#000;font:14px sans-serif">gamemann</text><use xlink:href="#playerN" x="412" y="140"/><text class="disable-pointer-events" x="430" y="128" text-anchor="middle" style="fill:#000;font:14px sans-serif">Tirss</text><use xlink:href="#playerN" x="284" y="172"/><text class="disable-pointer-events" x="302" y="160" text-anchor="middle" style="fill:#000;font:14px sans-serif">emersonsmp</text><use xlink:href="#playerE" x="700" y="188"/><text class="disable-pointer-events" x="718" y="176" text-anchor="middle" style="fill:#000;font:14px sans-serif">azomafitas</text><use xlink:href="#playerW" x="668" y="204"/><text class="disable-pointer-events" x="686" y="192" text-anchor="middle" style="fill:#000;font:14px sans-serif">HmbGow</text><use xlink:href="#playerW" x="124" y="220"/><text class="disable-pointer-events" x="142" y="208" text-anchor="middle" style="fill:#000;font:14px sans-serif">AndersonPull</text><use xlink:href="#playerN" x="572" y="220"/><text class="disable-pointer-events" x="590" y="208" text-anchor="middle" style="fill:#000;font:14px sans-serif">JonathasGomes</text><use xlink:href="#playerN" x="412" y="268"/><text class="disable-pointer-events" x="430" y="256" text-anchor="middle" style="fill:#000;font:14px sans-serif">lucashrz</text><use xlink:href="#playerS" x="572" y="284"/><text class="disable-pointer-events" x="590" y="272" text-anchor="middle" style="fill:#000;font:14px sans-serif">Pedrohdiasl</text><use xlink:href="#playerW" x="220" y="300"/><text class="disable-pointer-events" x="238" y="288" text-anchor="middle" style="fill:#000;font:14px sans-serif">FelipeSantanaa</text></g><style>.disable-pointer-events{pointer-events:none;-webkit-user-select:none;-moz-user-select:none;-ms-user-select:none;user-select:none}</style></svg>